<?xml version="1.0" standalone="no"?>
<!DOCTYPE svg PUBLIC "-//W3C//DTD SVG 20010904//EN"
 "http://www.w3.org/TR/2001/REC-SVG-20010904/DTD/svg10.dtd">
<svg version="1.0" xmlns="http://www.w3.org/2000/svg"
 width="121.000000pt" height="121.000000pt" viewBox="0 0 121.000000 121.000000"
 preserveAspectRatio="xMidYMid meet">
<metadata>
Created by potrace 1.14, written by Peter Selinger 2001-2017
</metadata>
<g transform="translate(0.000000,121.000000) scale(0.100000,-0.100000)"
fill="#000000" stroke="none">
<path d="M566 1119 c-58 -118 -55 -115 -102 -94 -21 10 -43 20 -48 23 -10 5
-3 -49 24 -187 28 -146 12 -157 -75 -51 -31 38 -61 68 -65 65 -5 -3 -11 -18
-15 -34 -8 -39 -23 -43 -100 -24 -36 9 -68 14 -71 11 -3 -3 4 -42 15 -86 12
-44 21 -85 21 -91 0 -6 -14 -18 -31 -26 -30 -16 -30 -17 -11 -33 10 -9 54 -48
97 -87 43 -38 94 -84 114 -101 35 -31 35 -32 22 -74 -7 -23 -10 -44 -8 -47 3
-2 47 1 99 7 51 7 109 13 128 13 l35 2 0 -145 c0 -132 2 -145 18 -148 17 -3
18 6 16 142 -2 80 -1 148 2 150 2 3 38 0 79 -5 41 -5 100 -11 132 -14 l56 -5
-13 43 c-7 24 -10 48 -7 54 4 6 30 29 57 53 28 23 75 64 105 90 30 26 66 57
79 67 l24 19 -37 18 c-20 9 -36 18 -36 19 0 1 11 44 24 95 27 103 28 102 -49
81 -83 -23 -96 -19 -109 34 -3 15 -10 27 -14 26 -4 0 -33 -32 -65 -70 -83 -97
-99 -93 -77 22 6 30 13 72 16 94 3 22 10 58 14 80 5 22 7 41 5 43 -2 2 -21 -6
-43 -17 -23 -12 -47 -18 -54 -15 -7 3 -33 46 -57 95 -25 49 -47 89 -50 88 -3
0 -24 -36 -45 -80z"/>
</g>
</svg>
